<svg xmlns="http://www.w3.org/2000/svg" xmlns:xlink="http://www.w3.org/1999/xlink" viewBox="0 0 488.35 100.33"><defs><style>.cls-1{fill:#212529;}.cls-2{fill:#ed1c24;}.cls-3{fill:url(#linear-gradient);}.cls-4{fill:url(#linear-gradient-2);}</style><linearGradient id="linear-gradient" x1="-127.22" y1="44.71" x2="-49.59" y2="44.71" gradientTransform="matrix(0.3, 0.96, -0.95, 0.3, 113.93, 108.58)" gradientUnits="userSpaceOnUse"><stop offset="0" stop-color="#ed1c24"/><stop offset="1"/></linearGradient><linearGradient id="linear-gradient-2" x1="11.99" y1="65.54" x2="89.62" y2="65.54" gradientTransform="matrix(0.98, -0.22, 0.22, 0.97, -26.35, 0.4)" xlink:href="#linear-gradient"/></defs><title>Asset 21</title><g id="Layer_2" data-name="Layer 2"><g id="Black_side_icon_one_line" data-name="Black side icon one line"><path class="cls-1" d="M125.42,27.66h6.42V66.71h-6.42Zm3.41,16.68H151v6.15H128.83ZM147.2,27.66h6.42V66.71H147.2Z"/><path class="cls-1" d="M173.12,27.66h4.67l14.67,39.05h-6.91L175.46,37.63l-10.1,29.08h-6.9Zm-7.76,25.49H185.9V59.3H165.36Z"/><path class="cls-1" d="M191.38,27.66h6.77L207,56l8.84-28.34h6.77L209.72,66.71h-5.47Z"/><path class="cls-1" d="M233,65.33a12.34,12.34,0,0,1-4.92-5,15.83,15.83,0,0,1-1.74-7.56V41.66a15.8,15.8,0,0,1,1.74-7.56A12.34,12.34,0,0,1,233,29.05a15.9,15.9,0,0,1,14.66,0,12.32,12.32,0,0,1,4.91,5.05,15.69,15.69,0,0,1,1.75,7.56V52.72a15.71,15.71,0,0,1-1.75,7.56,12.32,12.32,0,0,1-4.91,5,16,16,0,0,1-14.66,0Zm11.21-5.55A6.5,6.5,0,0,0,246.81,57a8.9,8.9,0,0,0,.91-4.12V41.47a8.9,8.9,0,0,0-.91-4.12,6.58,6.58,0,0,0-2.59-2.76,8.32,8.32,0,0,0-7.76,0,6.52,6.52,0,0,0-2.59,2.76,8.9,8.9,0,0,0-.92,4.12V52.91a8.9,8.9,0,0,0,.92,4.12,6.44,6.44,0,0,0,2.59,2.75,8.25,8.25,0,0,0,7.76,0Z"/><path class="cls-1" d="M267.26,65.36a11.89,11.89,0,0,1-4.81-5,16.79,16.79,0,0,1-1.67-7.76V41.84a16.82,16.82,0,0,1,1.67-7.76,12,12,0,0,1,4.81-5,14.73,14.73,0,0,1,7.37-1.77,13.52,13.52,0,0,1,6.38,1.5,12.88,12.88,0,0,1,4.75,4.34,17.46,17.46,0,0,1,2.6,6.7h-6.61a9.32,9.32,0,0,0-1.53-3.29,7.3,7.3,0,0,0-2.49-2.16,6.57,6.57,0,0,0-3.1-.75,7.09,7.09,0,0,0-3.85,1,6.62,6.62,0,0,0-2.51,2.86,10,10,0,0,0-.89,4.37V52.56a10.1,10.1,0,0,0,.89,4.38,6.57,6.57,0,0,0,2.51,2.84,7.17,7.17,0,0,0,3.85,1,6.77,6.77,0,0,0,3.13-.73,7.07,7.07,0,0,0,2.49-2.12,8.91,8.91,0,0,0,1.5-3.36h6.61a18,18,0,0,1-2.62,6.7A12.83,12.83,0,0,1,281,65.61a13.43,13.43,0,0,1-6.35,1.5A14.83,14.83,0,0,1,267.26,65.36Z"/><path class="cls-1" d="M317,66.56a21.35,21.35,0,0,1-4.86-1.62A19.07,19.07,0,0,1,308,62.28l3.41-5.13A16.11,16.11,0,0,0,316.43,60a18,18,0,0,0,5.95,1,11.16,11.16,0,0,0,6.08-1.4,4.42,4.42,0,0,0,2.17-3.94v0a4.11,4.11,0,0,0-1-2.86,5.63,5.63,0,0,0-2.52-1.56,32.47,32.47,0,0,0-4-.93l-.16,0-.16,0-.48-.08a39.24,39.24,0,0,1-6.45-1.53,9.27,9.27,0,0,1-4.29-3.17A10.29,10.29,0,0,1,309.81,39v0a11.64,11.64,0,0,1,1.67-6.34,10.44,10.44,0,0,1,4.83-4,20.81,20.81,0,0,1,11.83-.9,22.32,22.32,0,0,1,4.14,1.37,23.45,23.45,0,0,1,3.93,2.24l-3.11,5.29a19.14,19.14,0,0,0-4.6-2.44,13.35,13.35,0,0,0-4.56-.83,10.29,10.29,0,0,0-5.73,1.35,4.34,4.34,0,0,0-2,3.83v0a4,4,0,0,0,1.05,2.93,6.31,6.31,0,0,0,2.61,1.57c1.05.33,2.52.68,4.4,1.06l.2,0,.2,0,.29,0,.3.05a32.86,32.86,0,0,1,6.06,1.75,9.46,9.46,0,0,1,4.06,3.28A10.2,10.2,0,0,1,337,55.49v0a11.1,11.1,0,0,1-1.72,6.26,10.72,10.72,0,0,1-5,4,20.75,20.75,0,0,1-7.9,1.35A25.78,25.78,0,0,1,317,66.56Z"/><path class="cls-1" d="M343.71,27.66h6.41V66.71h-6.41Zm3.41,16.68h22.21v6.15H347.12Zm18.37-16.68h6.41V66.71h-6.41Z"/><path class="cls-1" d="M387.32,66.71h-6.55v-39h6.55Z"/><path class="cls-1" d="M396.18,27.66h6.42V66.71h-6.42Zm2.66,0h23v6.15h-23Zm0,16.6h20v6.12h-20Zm0,16.3h23v6.15h-23Z"/><path class="cls-1" d="M429.05,27.66h6.42V66.71h-6.42Zm3,32.9h22.61v6.15H432.06Z"/><path class="cls-1" d="M460.58,27.66H467V66.71h-6.42Zm3.71,32.9h9.1a8.86,8.86,0,0,0,6.16-2,7.25,7.25,0,0,0,2.19-5.65V41.44a7.24,7.24,0,0,0-2.19-5.64,8.86,8.86,0,0,0-6.16-2h-9.1V27.66h8.94a18.73,18.73,0,0,1,8.18,1.64,11.59,11.59,0,0,1,5.17,4.78,15.23,15.23,0,0,1,1.77,7.58V52.72a15.11,15.11,0,0,1-1.75,7.47A11.63,11.63,0,0,1,481.46,65a18.35,18.35,0,0,1-8.26,1.69h-8.91Z"/><path class="cls-2" d="M13.4,55.35c2.25,11.45,7.87,21.1,15.82,29.49A80.09,80.09,0,0,0,44.05,97a64.77,64.77,0,0,0,5.61,3.34h.41V95a11.21,11.21,0,0,1-2.63-1.49A76.31,76.31,0,0,1,33.23,82.18a56.63,56.63,0,0,1-13.8-22.27,37.12,37.12,0,0,1-1.93-11.8c.08-8.29,0-16.59,0-24.88,0-1.22,0-1.22,1.18-1.33a90.58,90.58,0,0,0,17.13-3.19A49.48,49.48,0,0,0,49.7,12.48c.12-.08.25-.13.37-.2V5.92A19.59,19.59,0,0,1,44,10.44,60.73,60.73,0,0,1,27.12,16,109.44,109.44,0,0,1,13.6,17.62c-.75.06-.86.36-.86,1q0,15.06,0,30.12A34,34,0,0,0,13.4,55.35Z"/><path class="cls-3" d="M90.13,58.36,20.32,81.13,35.44,9.07,90.13,58.36M99,60,32.48,0,14.09,87.64,99,60Z"/><path class="cls-4" d="M62.81,9.07,79.88,80.49,9.28,59.62,62.81,9.07M65.11.36,0,61.83,85.88,87.22,65.11.36Z"/><path d="M13.4,55.35c2.25,11.45,7.87,21.1,15.82,29.49A80.09,80.09,0,0,0,44.05,97a64.77,64.77,0,0,0,5.61,3.34h.41V95a11.21,11.21,0,0,1-2.63-1.49A76.31,76.31,0,0,1,33.23,82.18a56.63,56.63,0,0,1-13.8-22.27,37.12,37.12,0,0,1-1.93-11.8c.08-8.29,0-16.59,0-24.88,0-1.22,0-1.22,1.18-1.33a90.58,90.58,0,0,0,17.13-3.19A49.48,49.48,0,0,0,49.7,12.48c.12-.08.25-.13.37-.2V5.92A19.59,19.59,0,0,1,44,10.44,60.73,60.73,0,0,1,27.12,16,109.44,109.44,0,0,1,13.6,17.62c-.75.06-.86.36-.86,1q0,15.06,0,30.12A34,34,0,0,0,13.4,55.35Z"/><path class="cls-2" d="M86.75,55.35C84.5,66.8,78.88,76.45,70.93,84.84A79.83,79.83,0,0,1,56.09,97a63.13,63.13,0,0,1-5.6,3.34h-.42V95a11.08,11.08,0,0,0,2.64-1.49A76.31,76.31,0,0,0,66.92,82.18a56.74,56.74,0,0,0,13.8-22.27,37.12,37.12,0,0,0,1.93-11.8c-.08-8.29,0-16.59,0-24.88,0-1.22,0-1.22-1.18-1.33a90.58,90.58,0,0,1-17.13-3.19,49.48,49.48,0,0,1-13.87-6.23c-.12-.08-.25-.13-.38-.2V5.92a19.75,19.75,0,0,0,6.09,4.52A60.77,60.77,0,0,0,73,16a109.91,109.91,0,0,0,13.52,1.65c.76.06.87.36.87,1q0,15.06,0,30.12A32.69,32.69,0,0,1,86.75,55.35Z"/></g></g></svg>